#!OML:ASF E:\Style6\Style6.ASF
:FULLY-SPECIFIED
:DEGREES
3045
root 0.663034 17.1446 -1.63772 30.2362 -8.8393 -0.405723
lowerback 31.3511 -1.10322 3.15793
upperback 14.1346 -0.595475 1.54995
thorax -1.10167 -0.27035 0.0875949
lowerneck -1.03883 1.57831 3.46641
upperneck -23.9363 0.243066 -10.3202
head -7.04894 0.642031 -4.00353
rclavicle -1.39149e-015 -1.09332e-015
rhumerus 37.0028 21.7074 -60.4292
rradius 119.788
rwrist 18.5024
rhand -13.2757 1.53959
rfingers 7.12502
rthumb 12.8274 -28.0463
lclavicle -1.39149e-015 -1.09332e-015
lhumerus 37.2659 -18.0951 75.5395
lradius 125.517
lwrist -25.0213
lhand 4.25256 31.1903
lfingers 7.12502
lthumb 29.6568 58.8392
rfemur -61.1775 1.91002 16.8653
rtibia 39.3272
rfoot -2.49396 -7.83453
rtoes -14.9373
lfemur -59.1478 3.99439 -20.5762
ltibia 44.8175
lfoot -7.45606 10.6523
ltoes -23.2454
3046
root 0.660351 17.1446 -1.63832 30.2257 -8.81381 -0.444399
lowerback 31.3059 -1.13294 3.2405
upperback 14.1444 -0.614794 1.51082
thorax -1.07127 -0.27388 0.00241015
lowerneck -0.96019 1.55347 3.48764
upperneck -24.009 0.217312 -10.2557
head -7.08933 0.625268 -3.98763
rclavicle 2.18663e-015 1.73937e-014
rhumerus 36.8168 21.8232 -60.6762
rradius 119.905
rwrist 18.5891
rhand -13.3564 1.44724
rfingers 7.12502
rthumb 12.7496 -28.1435
lclavicle 2.18663e-015 1.73937e-014
lhumerus 37.3375 -17.9273 75.4723
lradius 125.539
lwrist -25.1338
lhand 4.33006 30.7615
lfingers 7.12502
lthumb 29.7308 58.3971
rfemur -61.1455 1.92443 16.9199
rtibia 39.2988
rfoot -2.45838 -7.84704
rtoes -15.1016
lfemur -59.1503 4.02425 -20.5321
ltibia 44.8454
lfoot -7.48078 10.6099
ltoes -23.3131
3047
root 0.658685 17.1458 -1.63943 30.2613 -8.75806 -0.471402
lowerback 31.2146 -1.14745 3.35739
upperback 14.1357 -0.606422 1.49352
thorax -1.04139 -0.263055 -0.0872203
lowerneck -0.864347 1.48948 3.47429
upperneck -24.0963 0.144056 -10.1341
head -7.14226 0.583916 -3.94471
rclavicle -1.19271e-015 6.55989e-015
rhumerus 36.5614 21.8208 -60.932
rradius 119.978
rwrist 18.7166
rhand -13.5388 1.54016
rfingers 7.12502
rthumb 12.5738 -28.0615
lclavicle -1.19271e-015 6.55989e-015
lhumerus 37.4478 -17.9812 75.3209
lradius 125.593
lwrist -25.1442
lhand 3.90004 30.8143
lfingers 7.12502
lthumb 29.3203 58.5226
rfemur -61.1546 1.91881 16.9555
rtibia 39.2743
rfoot -2.4542 -7.84257
rtoes -14.8659
lfemur -59.1983 4.02576 -20.4998
ltibia 44.8595
lfoot -7.43504 10.5759
ltoes -23.5589
3048
root 0.656299 17.1464 -1.64002 30.2964 -8.72344 -0.485481
lowerback 31.1543 -1.13494 3.40225
upperback 14.1139 -0.58061 1.50133
thorax -1.03962 -0.248597 -0.11276
lowerneck -0.780622 1.43054 3.42383
upperneck -24.1644 0.0759659 -10.0174
head -7.18652 0.548156 -3.89632
rclavicle -6.75868e-015 -4.09496e-014
rhumerus 36.3169 21.7901 -61.1044
rradius 120.07
rwrist 18.7488
rhand -13.6965 1.50386
rfingers 7.12502
rthumb 12.4218 -28.107
lclavicle -6.75868e-015 -4.09496e-014
lhumerus 37.4967 -18.0043 75.2374
lradius 125.713
lwrist -25.0864
lhand 3.65627 30.9163
lfingers 7.12502
lthumb 29.0875 58.6649
rfemur -61.1721 1.92958 16.9706
rtibia 39.2469
rfoot -2.48168 -7.88914
rtoes -14.3941
lfemur -59.2303 4.02094 -20.4757
ltibia 44.839
lfoot -7.33589 10.5517
ltoes -23.7159
3049
root 0.652821 17.1469 -1.6398 30.3051 -8.71957 -0.470248
lowerback 31.1309 -1.0962 3.38094
upperback 14.0982 -0.53879 1.50401
thorax -1.04673 -0.229293 -0.110627
lowerneck -0.700085 1.35457 3.43037
upperneck -24.231 -0.0214703 -9.93907
head -7.23094 0.495669 -3.86892
rclavicle 7.15625e-015 -5.47652e-014
rhumerus 36.0842 21.7403 -61.2159
rradius 120.236
rwrist 18.6929
rhand -13.8583 1.32125
rfingers 7.12502
rthumb 12.2657 -28.2991
lclavicle 7.15625e-015 -5.47652e-014
lhumerus 37.514 -18.0093 75.1689
lradius 125.854
lwrist -25.067
lhand 3.61254 30.9395
lfingers 7.12502
lthumb 29.0457 58.6954
rfemur -61.1556 1.95343 16.9404
rtibia 39.2001
rfoot -2.53541 -7.91728
rtoes -13.5377
lfemur -59.2152 4.01436 -20.4653
ltibia 44.7707
lfoot -7.38777 10.5153
ltoes -23.4249
3050
root 0.649878 17.1522 -1.63999 30.2894 -8.7115 -0.403518
lowerback 31.1517 -1.08057 3.34337
upperback 14.0763 -0.527898 1.47981
thorax -1.08133 -0.224625 -0.118939
lowerneck -0.513119 1.27206 3.56312
upperneck -24.4134 -0.14741 -9.95468
head -7.33298 0.430028 -3.8982
rclavicle -2.18663e-014 -5.66536e-015
rhumerus 35.8782 21.653 -61.4192
rradius 120.386
rwrist 18.6892
rhand -13.8314 1.29085
rfingers 7.12502
rthumb 12.2917 -28.3279
lclavicle -2.18663e-014 -5.66536e-015
lhumerus 37.5341 -17.9054 75.1277
lradius 125.995
lwrist -25.2221
lhand 3.8306 30.7368
lfingers 7.12502
lthumb 29.254 58.4566
rfemur -61.0943 1.93937 16.8677
rtibia 39.1051
rfoot -2.50028 -7.94661
rtoes -13.586
lfemur -59.153 3.94046 -20.4871
ltibia 44.6699
lfoot -7.39499 10.5499
ltoes -23.4667
